<svg width="20" height="22" viewBox="0 0 20 22" fill="none" xmlns="http://www.w3.org/2000/svg">
<path d="M12.0709 4.58341C12.9255 4.76603 13.7109 5.22382 14.3267 5.89818C14.9424 6.57254 15.3604 7.43279 15.5271 8.36883M12.0709 0.750076C13.8465 0.966119 15.5022 1.83699 16.7663 3.21971C18.0304 4.60242 18.8276 6.41479 19.0271 8.35924M18.1521 16.0067V18.8817C18.1531 19.1486 18.1032 19.4128 18.0055 19.6574C17.9079 19.9019 17.7647 20.1214 17.5852 20.3019C17.4056 20.4823 17.1936 20.6197 16.9628 20.7052C16.7319 20.7907 16.4873 20.8224 16.2446 20.7984C13.5521 20.478 10.9657 19.4703 8.69335 17.8563C6.5792 16.385 4.78677 14.4218 3.44335 12.1063C1.96458 9.60623 1.04431 6.75978 0.757102 3.79758C0.735236 3.53257 0.763993 3.26547 0.84154 3.0133C0.919087 2.76113 1.04373 2.5294 1.20752 2.33288C1.37132 2.13636 1.57068 1.97934 1.79292 1.87183C2.01516 1.76431 2.2554 1.70866 2.49835 1.70841H5.12335C5.548 1.70383 5.95967 1.86853 6.28164 2.1718C6.60362 2.47506 6.81392 2.89621 6.87335 3.35674C6.98415 4.27681 7.18962 5.18019 7.48585 6.04966C7.60358 6.39267 7.62906 6.76545 7.55927 7.12384C7.48948 7.48222 7.32736 7.81118 7.0921 8.07174L5.98085 9.28883C7.22646 11.6881 9.04025 13.6746 11.2309 15.0388L12.3421 13.8217C12.58 13.5641 12.8804 13.3865 13.2076 13.3101C13.5348 13.2336 13.8752 13.2616 14.1884 13.3905C14.9822 13.7149 15.807 13.94 16.6471 14.0613C17.0721 14.127 17.4603 14.3615 17.7378 14.7202C18.0153 15.0789 18.1627 15.5368 18.1521 16.0067Z" stroke="#020D22" stroke-width="1.5" stroke-linecap="round" stroke-linejoin="round"/>
</svg>
